<?xml version="1.0" encoding="UTF-8" standalone="no"?>
<!DOCTYPE svg PUBLIC "-//W3C//DTD SVG 1.1//EN"
 "http://www.w3.org/Graphics/SVG/1.1/DTD/svg11.dtd">
<!-- Generated by graphviz version 2.38.0 (20140413.2041)
 -->
<!-- Title: models_diagram Pages: 1 -->
<svg width="656pt" height="679pt"
 viewBox="0.00 0.00 656.34 679.00" xmlns="http://www.w3.org/2000/svg" xmlns:xlink="http://www.w3.org/1999/xlink">
<g id="graph0" class="graph" transform="scale(1 1) rotate(0) translate(4 675)">
<title>models_diagram</title>
<polygon fill="none" stroke="none" points="-4,4 -4,-675 652.343,-675 652.343,4 -4,4"/>
<!-- _diagram_info -->
<g id="node1" class="node"><title>_diagram_info</title>
<text text-anchor="start" x="8" y="-649.6" font-family="Times,serif" font-size="13.00">Models diagram</text>
<text text-anchor="start" x="8" y="-635.6" font-family="Times,serif" font-size="13.00">Date: Aug 09 2017 &#45; 19:21</text>
<text text-anchor="start" x="8" y="-621.6" font-family="Times,serif" font-size="13.00">Migration version: 20170809231751</text>
<text text-anchor="start" x="8" y="-607.6" font-family="Times,serif" font-size="13.00">Generated by RailRoady 1.5.3</text>
<text text-anchor="start" x="8" y="-593.6" font-family="Times,serif" font-size="13.00">http://railroady.prestonlee.com</text>
</g>
<!-- UserSong -->
<g id="node2" class="node"><title>UserSong</title>
<path fill="none" stroke="black" d="M244,-0.5C244,-0.5 464,-0.5 464,-0.5 470,-0.5 476,-6.5 476,-12.5 476,-12.5 476,-109.5 476,-109.5 476,-115.5 470,-121.5 464,-121.5 464,-121.5 244,-121.5 244,-121.5 238,-121.5 232,-115.5 232,-109.5 232,-109.5 232,-12.5 232,-12.5 232,-6.5 238,-0.5 244,-0.5"/>
<text text-anchor="middle" x="354" y="-106.3" font-family="Times,serif" font-size="14.00">UserSong</text>
<polyline fill="none" stroke="black" points="232,-98.5 476,-98.5 "/>
<text text-anchor="start" x="240" y="-83.3" font-family="Times,serif" font-size="14.00">id :integer</text>
<text text-anchor="start" x="240" y="-68.3" font-family="Times,serif" font-size="14.00">position :integer</text>
<text text-anchor="start" x="240" y="-53.3" font-family="Times,serif" font-size="14.00">user_id :integer</text>
<text text-anchor="start" x="240" y="-38.3" font-family="Times,serif" font-size="14.00">song_id :integer</text>
<text text-anchor="start" x="240" y="-23.3" font-family="Times,serif" font-size="14.00">created_at :timestamp without time zone</text>
<text text-anchor="start" x="240" y="-8.3" font-family="Times,serif" font-size="14.00">updated_at :timestamp without time zone</text>
</g>
<!-- ApplicationRecord -->
<g id="node3" class="node"><title>ApplicationRecord</title>
<ellipse fill="none" stroke="black" cx="571" cy="-625" rx="77.1866" ry="18"/>
<text text-anchor="middle" x="571" y="-621.3" font-family="Times,serif" font-size="14.00">ApplicationRecord</text>
</g>
<!-- Genre -->
<g id="node4" class="node"><title>Genre</title>
<path fill="none" stroke="black" d="M244,-579.5C244,-579.5 464,-579.5 464,-579.5 470,-579.5 476,-585.5 476,-591.5 476,-591.5 476,-658.5 476,-658.5 476,-664.5 470,-670.5 464,-670.5 464,-670.5 244,-670.5 244,-670.5 238,-670.5 232,-664.5 232,-658.5 232,-658.5 232,-591.5 232,-591.5 232,-585.5 238,-579.5 244,-579.5"/>
<text text-anchor="middle" x="354" y="-655.3" font-family="Times,serif" font-size="14.00">Genre</text>
<polyline fill="none" stroke="black" points="232,-647.5 476,-647.5 "/>
<text text-anchor="start" x="240" y="-632.3" font-family="Times,serif" font-size="14.00">id :integer</text>
<text text-anchor="start" x="240" y="-617.3" font-family="Times,serif" font-size="14.00">name :character varying</text>
<text text-anchor="start" x="240" y="-602.3" font-family="Times,serif" font-size="14.00">created_at :timestamp without time zone</text>
<text text-anchor="start" x="240" y="-587.3" font-family="Times,serif" font-size="14.00">updated_at :timestamp without time zone</text>
</g>
<!-- Song -->
<g id="node5" class="node"><title>Song</title>
<path fill="none" stroke="black" d="M244,-421.5C244,-421.5 464,-421.5 464,-421.5 470,-421.5 476,-427.5 476,-433.5 476,-433.5 476,-530.5 476,-530.5 476,-536.5 470,-542.5 464,-542.5 464,-542.5 244,-542.5 244,-542.5 238,-542.5 232,-536.5 232,-530.5 232,-530.5 232,-433.5 232,-433.5 232,-427.5 238,-421.5 244,-421.5"/>
<text text-anchor="middle" x="354" y="-527.3" font-family="Times,serif" font-size="14.00">Song</text>
<polyline fill="none" stroke="black" points="232,-519.5 476,-519.5 "/>
<text text-anchor="start" x="240" y="-504.3" font-family="Times,serif" font-size="14.00">id :integer</text>
<text text-anchor="start" x="240" y="-489.3" font-family="Times,serif" font-size="14.00">name :character varying</text>
<text text-anchor="start" x="240" y="-474.3" font-family="Times,serif" font-size="14.00">duration :integer</text>
<text text-anchor="start" x="240" y="-459.3" font-family="Times,serif" font-size="14.00">genre_id :integer</text>
<text text-anchor="start" x="240" y="-444.3" font-family="Times,serif" font-size="14.00">created_at :timestamp without time zone</text>
<text text-anchor="start" x="240" y="-429.3" font-family="Times,serif" font-size="14.00">updated_at :timestamp without time zone</text>
</g>
<!-- Genre&#45;&gt;Song -->
<g id="edge1" class="edge"><title>Genre&#45;&gt;Song</title>
<path fill="none" stroke="#4b63ee" d="M354,-571.283C354,-565.279 354,-559.09 354,-552.907"/>
<ellipse fill="none" stroke="#4b63ee" cx="354" cy="-575.387" rx="4" ry="4"/>
<polygon fill="#4b63ee" stroke="#4b63ee" points="354,-552.541 358.5,-542.541 354,-547.541 354,-542.541 354,-542.541 354,-542.541 354,-547.541 349.5,-542.541 354,-552.541 354,-552.541"/>
</g>
<!-- Song&#45;&gt;UserSong -->
<g id="edge2" class="edge"><title>Song&#45;&gt;UserSong</title>
<path fill="none" stroke="#8ce43b" d="M296.064,-414.578C290.334,-405.147 285.393,-395.179 282,-385 250.096,-289.288 250.096,-253.712 282,-158 285.162,-148.513 289.67,-139.209 294.907,-130.352"/>
<ellipse fill="none" stroke="#8ce43b" cx="298.22" cy="-417.969" rx="4.00002" ry="4.00002"/>
<polygon fill="#8ce43b" stroke="#8ce43b" points="295.05,-130.125 304.177,-124.047 297.707,-125.89 300.365,-121.655 300.365,-121.655 300.365,-121.655 297.707,-125.89 296.553,-119.263 295.05,-130.125 295.05,-130.125"/>
</g>
<!-- User -->
<g id="node6" class="node"><title>User</title>
<path fill="none" stroke="black" d="M302.5,-158.5C302.5,-158.5 591.5,-158.5 591.5,-158.5 597.5,-158.5 603.5,-164.5 603.5,-170.5 603.5,-170.5 603.5,-372.5 603.5,-372.5 603.5,-378.5 597.5,-384.5 591.5,-384.5 591.5,-384.5 302.5,-384.5 302.5,-384.5 296.5,-384.5 290.5,-378.5 290.5,-372.5 290.5,-372.5 290.5,-170.5 290.5,-170.5 290.5,-164.5 296.5,-158.5 302.5,-158.5"/>
<text text-anchor="middle" x="447" y="-369.3" font-family="Times,serif" font-size="14.00">User</text>
<polyline fill="none" stroke="black" points="290.5,-361.5 603.5,-361.5 "/>
<text text-anchor="start" x="298.5" y="-346.3" font-family="Times,serif" font-size="14.00">id :integer</text>
<text text-anchor="start" x="298.5" y="-331.3" font-family="Times,serif" font-size="14.00">email :character varying</text>
<text text-anchor="start" x="298.5" y="-316.3" font-family="Times,serif" font-size="14.00">encrypted_password :character varying</text>
<text text-anchor="start" x="298.5" y="-301.3" font-family="Times,serif" font-size="14.00">reset_password_token :character varying</text>
<text text-anchor="start" x="298.5" y="-286.3" font-family="Times,serif" font-size="14.00">reset_password_sent_at :timestamp without time zone</text>
<text text-anchor="start" x="298.5" y="-271.3" font-family="Times,serif" font-size="14.00">remember_created_at :timestamp without time zone</text>
<text text-anchor="start" x="298.5" y="-256.3" font-family="Times,serif" font-size="14.00">sign_in_count :integer</text>
<text text-anchor="start" x="298.5" y="-241.3" font-family="Times,serif" font-size="14.00">current_sign_in_at :timestamp without time zone</text>
<text text-anchor="start" x="298.5" y="-226.3" font-family="Times,serif" font-size="14.00">last_sign_in_at :timestamp without time zone</text>
<text text-anchor="start" x="298.5" y="-211.3" font-family="Times,serif" font-size="14.00">current_sign_in_ip :inet</text>
<text text-anchor="start" x="298.5" y="-196.3" font-family="Times,serif" font-size="14.00">last_sign_in_ip :inet</text>
<text text-anchor="start" x="298.5" y="-181.3" font-family="Times,serif" font-size="14.00">created_at :timestamp without time zone</text>
<text text-anchor="start" x="298.5" y="-166.3" font-family="Times,serif" font-size="14.00">updated_at :timestamp without time zone</text>
</g>
<!-- Song&#45;&gt;User -->
<g id="edge3" class="edge"><title>Song&#45;&gt;User</title>
<path fill="none" stroke="#e31f22" d="M384.835,-411.871C387.409,-406.099 390.056,-400.164 392.739,-394.15"/>
<polygon fill="#e31f22" stroke="#e31f22" points="384.724,-412.12 376.54,-419.419 382.687,-416.686 380.65,-421.252 380.65,-421.252 380.65,-421.252 382.687,-416.686 384.76,-423.085 384.724,-412.12 384.724,-412.12"/>
<polygon fill="#e31f22" stroke="#e31f22" points="392.904,-393.779 401.088,-386.479 394.941,-389.212 396.978,-384.646 396.978,-384.646 396.978,-384.646 394.941,-389.212 392.868,-382.813 392.904,-393.779 392.904,-393.779"/>
</g>
<!-- User&#45;&gt;UserSong -->
<g id="edge4" class="edge"><title>User&#45;&gt;UserSong</title>
<path fill="none" stroke="#ea19db" d="M393.671,-150.941C390.648,-144.163 387.664,-137.473 384.772,-130.989"/>
<ellipse fill="none" stroke="#ea19db" cx="395.332" cy="-154.663" rx="4.00002" ry="4.00002"/>
<polygon fill="#ea19db" stroke="#ea19db" points="384.68,-130.783 384.716,-119.818 382.644,-126.217 380.607,-121.651 380.607,-121.651 380.607,-121.651 382.644,-126.217 376.497,-123.484 384.68,-130.783 384.68,-130.783"/>
</g>
</g>
</svg>
